<?xml version="1.0" encoding="utf-8"?>
<!-- Generator: Adobe Illustrator 27.5.0, SVG Export Plug-In . SVG Version: 6.00 Build 0)  -->
<svg version="1.1" id="图层_1" xmlns="http://www.w3.org/2000/svg" xmlns:xlink="http://www.w3.org/1999/xlink" x="0px" y="0px"
	 viewBox="0 0 78.8 103.4" style="enable-background:new 0 0 78.8 103.4;" xml:space="preserve">
<style type="text/css">
	.st0{fill-rule:evenodd;clip-rule:evenodd;fill:#FFFFFF;}
</style>
<path class="st0" d="M231.6-135.4v0.1V-135.4h3.6c3.1,0,5.5-2.5,5.5-5.5v-12.5c0-0.4,0-0.7-0.1-1.1h9.1c3.1,0,5.5-2.5,5.5-5.5v-79
	c0-3.1-2.5-5.5-5.5-5.5h-12.5c-3.1,0-5.5,2.5-5.5,5.5h0v36.5H201c-4.2,0-7.1,0-9,0c-2.6,0-4.8,2.1-4.8,4.8v38.8v18.8
	c0,2.7,2.1,4.8,4.8,4.8h9H231.6z M231.6-159v-22h-21.9c-4.5,0-8.2,3.7-8.2,8.2v5.6c0,4.5,3.7,8.2,8.2,8.2H231.6z M78.6-154.5v-22.2
	c0-6.6-2.3-11.9-5.1-11.9h-7.1c-0.3,0-0.6,0.1-0.9,0.2c-0.7-0.2-1.4-0.4-2.1-0.4H50.1c-2.8,0-5.1,1.8-5.1,4v10.1c0,2.2,2.3,4,5.1,4
	h11.1v12.4H31.8c-4.5,0-8.2-3.7-8.2-8.2v-39.6c0-4.5,3.7-8.2,8.2-8.2h41.5c3.1,0,5.5-2.5,5.5-5.5v-12.5c0-3-2.5-5.5-5.5-5.5H29.1
	c-3.1,0-5.5,2.5-5.5,5.5v9.8c0,4.5-3.7,8.2-8.2,8.2H5.5c-3.1,0-5.5,2.5-5.5,5.5v45c0,3.1,2.5,5.5,5.5,5.5h9.8c4.5,0,8.2,3.7,8.2,8.2
	v9.8c0,3.1,2.5,5.5,5.5,5.5h36.3c0.3,0.1,0.6,0.2,0.9,0.2h7.1c0.4,0,0.9-0.1,1.3-0.4c2.4-0.6,4.1-2.8,4.1-5.3v-12.5
	C78.8-153.5,78.8-154,78.6-154.5z M156.4-167v-29.5h0c0-3,2.5-5.5,5.5-5.5h12.5c3,0,5.5,2.5,5.5,5.5v32.2c0,3-2.5,5.5-5.5,5.5h-3.8
	c-4.5,0-8.2,3.7-8.2,8.2v9.8c0,3-2.5,5.5-5.5,5.5h-45c-3,0-5.5-2.5-5.5-5.5v-9.8c0-4.5-3.7-8.2-8.2-8.2h-3.8c-3,0-5.5-2.5-5.5-5.5
	v-32.2c0-3,2.5-5.5,5.5-5.5h12.5c3,0,5.5,2.5,5.5,5.5v29.5c0,4.5,3.7,8.2,8.2,8.2h27.6C152.7-158.7,156.4-162.4,156.4-167z
	 M367.6-183.2h12.7v0c3,0,5.5-2.5,5.5-5.5v-8.3c0-3-2.5-5.5-5.5-5.5h-32.8c-7.8,0-10.5,1.6-10.5,5.5v23.6v33c0,3,2.5,5.5,5.5,5.5
	h11.9c2.7-0.2,5-2.8,5-5.5V-175C359.4-179.5,363.1-183.2,367.6-183.2z M414.6-222.8v10.1c0,2.2-2.3,4-5.1,4h-13.1
	c-2.8,0-5.1-1.8-5.1-4v-10.1c0-2.2,2.3-4,5.1-4h13.1C412.3-226.8,414.6-225,414.6-222.8z M523.4-138.6v-10.1c0-2.2-2.3-4-5.1-4
	h-13.1c-2.8,0-5.1,1.8-5.1,4v10.1c0,2.2,2.3,4,5.1,4h13.1C521.1-134.6,523.4-136.4,523.4-138.6z M320.3-157.4h-24.7
	c-4.5,0-8.2-3.7-8.2-8.2v-19.2h33.1c2.8,0,5.1-1.8,5.1-4v-10.1c0-2.2-2.3-4-5.1-4h-33.1v-36.3c0-2.7-2.2-5.4-5-5.5h-11.9
	c-3.1,0-5.5,2.5-5.5,5.5v74.4v23.6c0,3.9,2.7,5.5,10.5,5.5h44.8c3.1,0,5.5-2.5,5.5-5.5v-10.7C325.8-154.9,323.4-157.4,320.3-157.4
	L320.3-157.4z M448.4-202.2v0.1H479h9c2.7,0,4.8,2.1,4.8,4.8v16.8v40.8c0,2.6-2.1,4.8-4.8,4.8c-1.9,0-4.7,0-9,0h-30.7v36.5h0
	c0,3-2.5,5.5-5.5,5.5h-12.5c-3,0-5.5-2.5-5.5-5.5v-98.2c0-3,2.5-5.5,5.5-5.5h9.8H448.4z M448.4-158.5v-22h21.9
	c4.5,0,8.2,3.7,8.2,8.2v5.6c0,4.5-3.7,8.2-8.2,8.2H448.4z M391.2-196.7v56.2v0c0,4.2,0,5.5,8.3,5.5h9.8c3.1,0,5.5-2.5,5.5-5.5
	l0-56.2c0-3.1-2.5-5.5-5.5-5.5h-12.5C393.7-202.2,391.2-199.7,391.2-196.7L391.2-196.7z"/>
<path class="st0" d="M78.6,83.5V61.2c0-6.6-2.3-11.9-5.1-11.9h-7.1c-0.3,0-0.6,0.1-0.9,0.2c-0.7-0.2-1.4-0.4-2.1-0.4H50.1
	c-2.8,0-5.1,1.8-5.1,4v10.1c0,2.2,2.3,4,5.1,4h11.1v12.4H31.8c-4.5,0-8.2-3.7-8.2-8.2V31.8c0-4.5,3.7-8.2,8.2-8.2h41.5
	c3.1,0,5.5-2.5,5.5-5.5V5.5c0-3-2.5-5.5-5.5-5.5H29.1c-3.1,0-5.5,2.5-5.5,5.5v9.8c0,4.5-3.7,8.2-8.2,8.2H5.5c-3.1,0-5.5,2.5-5.5,5.5
	v45c0,3.1,2.5,5.5,5.5,5.5h9.8c4.5,0,8.2,3.7,8.2,8.2v9.8c0,3.1,2.5,5.5,5.5,5.5h36.3c0.3,0.1,0.6,0.2,0.9,0.2h7.1
	c0.4,0,0.9-0.1,1.3-0.4c2.4-0.6,4.1-2.8,4.1-5.3V85.1C78.8,84.5,78.8,84,78.6,83.5z"/>
</svg>
